<svg xmlns="http://www.w3.org/2000/svg" width="1024" height="1024" viewBox="0 0 1024 1024">
<defs>
  <linearGradient id="app-bg" x1="0" y1="0" x2="1024" y2="1024" gradientUnits="userSpaceOnUse">
    <stop offset="0%" stop-color="#FEE500"/>
    <stop offset="100%" stop-color="#EBC400"/>
  </linearGradient>
  <filter id="bubble-shadow" x="-10%" y="-10%" width="130%" height="130%">
    <feDropShadow dx="0" dy="8" stdDeviation="12" flood-color="#A08000" flood-opacity="0.28"/>
  </filter>
</defs>
<rect x="32" y="32" width="960" height="960" rx="216" fill="url(#app-bg)"/>
<g filter="url(#bubble-shadow)">
  <g transform="translate(22 16) scale(.88)">
    <path d="M312 292H460A140 140 0 0 1 600 432V512A140 140 0 0 1 460 652H360L240 732L280 652H312A140 140 0 0 1 172 512V432A140 140 0 0 1 312 292Z" fill="none" stroke="#19170D" stroke-width="96" stroke-linecap="round" stroke-linejoin="round"/>
    <path d="M564 292H712A140 140 0 0 1 852 432V512A140 140 0 0 1 712 652H664L784 732L744 652H564A140 140 0 0 1 424 512V432A140 140 0 0 1 564 292Z" fill="none" stroke="#19170D" stroke-width="96" stroke-linecap="round" stroke-linejoin="round"/>
  </g>
</g>
</svg>
